<?xml version="1.0" standalone="no"?><!DOCTYPE svg PUBLIC "-//W3C//DTD SVG 1.1//EN" "http://www.w3.org/Graphics/SVG/1.1/DTD/svg11.dtd"><svg t="1590993805393" class="icon" viewBox="0 0 1024 1024" version="1.1" xmlns="http://www.w3.org/2000/svg" p-id="2693" xmlns:xlink="http://www.w3.org/1999/xlink" width="200" height="200"><defs><style type="text/css"></style></defs><path d="M970.24 536.32c0 24.32-20.48 44.8-44.8 44.8L98.56 581.12c-24.32 0-44.8-20.48-44.8-44.8l0-49.92c0-24.32 20.48-44.8 44.8-44.8l826.88 0c24.32 0 44.8 20.48 44.8 44.8L970.24 536.32 970.24 536.32zM970.24 536.32" p-id="2694"></path><path d="M536.32 53.76c24.32 0 44.8 20.48 44.8 44.8l0 826.88c0 24.32-20.48 44.8-44.8 44.8l-49.92 0c-24.32 0-44.8-20.48-44.8-44.8L441.6 98.56c0-24.32 20.48-44.8 44.8-44.8L536.32 53.76 536.32 53.76zM536.32 53.76" p-id="2695"></path></svg>