<?xml version="1.0" standalone="no"?><!DOCTYPE svg PUBLIC "-//W3C//DTD SVG 1.1//EN" "http://www.w3.org/Graphics/SVG/1.1/DTD/svg11.dtd"><svg t="1590921348285" class="icon" viewBox="0 0 1024 1024" version="1.1" xmlns="http://www.w3.org/2000/svg" p-id="5710" xmlns:xlink="http://www.w3.org/1999/xlink" width="200" height="200"><defs><style type="text/css"></style></defs><path d="M1009.374151 914.692164l-93.90693 93.904274c-15.776874 15.776874-40.642715 15.697193-56.520518-0.177955L511.207399 660.673867l-343.694156 343.6915c-15.776874 15.776874-40.645371 15.699849-56.520518-0.175299L16.493498 909.693498c-15.875148-15.875148-15.952173-40.743645-0.175298-56.520518l343.691499-343.6915L14.156184 163.627964c-15.875148-15.877804-15.954829-40.743645-0.177955-56.520519L107.882502 13.200516c15.776874-15.776874 40.645371-15.697193 56.520519 0.177955l345.856172 345.853515L855.828513 13.662667c15.776874-15.776874 40.645371-15.697193 56.520518 0.175298l94.49657 94.49657c15.875148 15.875148 15.952173 40.743645 0.177955 56.520519L661.45158 510.42703l347.744616 347.744616c15.875148 15.875148 15.952173 40.743645 0.177955 56.520518z" p-id="5711"></path></svg>