<?xml version="1.0" standalone="no"?><!DOCTYPE svg PUBLIC "-//W3C//DTD SVG 1.1//EN" "http://www.w3.org/Graphics/SVG/1.1/DTD/svg11.dtd"><svg t="1591444301525" class="icon" viewBox="0 0 1024 1024" version="1.1" xmlns="http://www.w3.org/2000/svg" p-id="2545" xmlns:xlink="http://www.w3.org/1999/xlink" width="200" height="200"><defs><style type="text/css"></style></defs><path d="M512 359.08213712L817.83393817 53.24819899c43.69061365-43.69061365 109.22671292-43.69061365 152.9173266 0s43.69061365 109.22671292 0 152.91732657L664.91786288 512l305.83393813 305.83393817c43.69061365 43.69061365 43.69061365 109.22671292 0 152.9173266s-109.22671292 43.69061365-152.91732657 0L512 664.91786288 206.16606183 970.75180101c-43.69061365 43.69061365-109.22671292 43.69061365-152.9173266 0-43.69061365-43.69061365-43.69061365-109.22671292 0-152.91732657L359.08213712 512 53.24819899 206.16606183C9.55687026 162.47473313 9.55687026 96.93952767 53.24819899 53.24819899c43.69061365-43.69061365 109.22671292-43.69061365 152.91732657 0L512 359.08213712Z" p-id="2546"></path></svg>