<?xml version="1.0" standalone="no"?><!DOCTYPE svg PUBLIC "-//W3C//DTD SVG 1.1//EN" "http://www.w3.org/Graphics/SVG/1.1/DTD/svg11.dtd"><svg t="1591246347221" class="icon" viewBox="0 0 1024 1024" version="1.1" xmlns="http://www.w3.org/2000/svg" p-id="2548" xmlns:xlink="http://www.w3.org/1999/xlink" width="200" height="200"><defs><style type="text/css"></style></defs><path d="M965.392 598.552l-65.22-37.654a390.336 390.336 0 0 0 0-97.798l65.22-37.654c19.152-11.056 28.39-33.804 22.092-55.002-22.428-75.498-62.35-143.456-115.07-199.19-15.268-16.14-39.634-19.672-58.874-8.564l-65.124 37.596a388.25 388.25 0 0 0-84.678-48.96V76.098c0-22.26-15.304-41.608-36.968-46.734-75.288-17.818-154.236-17.82-229.54 0-21.662 5.126-36.968 24.472-36.968 46.734v75.228a388.202 388.202 0 0 0-84.678 48.96L210.46 162.69c-19.242-11.108-43.608-7.576-58.874 8.564-52.72 55.734-92.642 123.694-115.07 199.19-6.298 21.198 2.94 43.944 22.092 55.002l65.22 37.654a390.336 390.336 0 0 0 0 97.798l-65.22 37.654c-19.152 11.056-28.39 33.804-22.092 55.002 22.428 75.496 62.35 143.456 115.07 199.19 15.268 16.14 39.634 19.672 58.874 8.566l65.124-37.596a388.16 388.16 0 0 0 84.678 48.958v75.228c0 22.26 15.304 41.608 36.968 46.734 75.29 17.818 154.236 17.82 229.54 0 21.662-5.126 36.968-24.472 36.968-46.734v-75.228a388.276 388.276 0 0 0 84.678-48.958l65.124 37.596c19.24 11.108 43.606 7.576 58.874-8.566 52.72-55.734 92.642-123.694 115.07-199.19 6.298-21.198-2.94-43.944-22.092-55.002z m-130.958 200.922l-92.618-53.48c-53.976 46.142-73.118 57.752-142.078 82.118v106.958a434.29 434.29 0 0 1-175.476 0v-106.958c-67.242-23.758-86.71-34.79-142.078-82.118l-92.618 53.48c-39.42-44.18-69.378-95.978-87.858-151.916l92.658-53.48c-13.07-70.834-13.076-93.288 0-164.158l-92.658-53.48c18.48-55.938 48.44-107.738 87.858-151.938l92.618 53.52c54.754-46.868 74.126-58.13 142.078-82.138V88.928a433.58 433.58 0 0 1 175.476 0v106.958c67.956 24.01 87.33 35.274 142.078 82.138l92.618-53.52c39.418 44.198 69.378 95.998 87.858 151.938l-92.658 53.48c13.072 70.852 13.076 93.288 0 164.158l92.658 53.48c-18.48 55.936-48.438 107.736-87.858 151.914zM512 320c-105.87 0-192 86.13-192 192s86.13 192 192 192 192-86.13 192-192-86.13-192-192-192z m0 320c-70.58 0-128-57.42-128-128s57.42-128 128-128 128 57.42 128 128-57.42 128-128 128z" p-id="2549"></path></svg>