<?xml version="1.0" standalone="no"?><!DOCTYPE svg PUBLIC "-//W3C//DTD SVG 1.1//EN" "http://www.w3.org/Graphics/SVG/1.1/DTD/svg11.dtd"><svg t="1591599465575" class="icon" viewBox="0 0 1024 1024" version="1.1" xmlns="http://www.w3.org/2000/svg" p-id="2549" xmlns:xlink="http://www.w3.org/1999/xlink" width="200" height="200"><defs><style type="text/css"></style></defs><path d="M768 85.333333a170.666667 170.666667 0 0 1 5.333333 341.248L768 426.666667h-85.333333v170.666666h85.333333a170.666667 170.666667 0 1 1-170.666667 170.666667v-85.333333h-170.666666v85.333333a170.666667 170.666667 0 1 1-176-170.581333L256 597.333333h85.333333v-170.666666h-85.333333a170.666667 170.666667 0 1 1 170.666667-170.666667v85.333333h170.666666v-85.333333a170.666667 170.666667 0 0 1 170.666667-170.666667zM341.333333 682.666667h-85.333333a85.333333 85.333333 0 1 0 85.226667 89.6L341.333333 768v-85.333333z m426.666667 0h-85.333333v85.333333a85.333333 85.333333 0 1 0 85.333333-85.333333z m-170.666667-256h-170.666666v170.666666h170.666666v-170.666666zM256 170.666667a85.333333 85.333333 0 1 0 0 170.666666h85.333333v-85.333333a85.333333 85.333333 0 0 0-85.333333-85.333333z m512 0a85.333333 85.333333 0 0 0-85.226667 81.066666L682.666667 256v85.333333h85.333333a85.333333 85.333333 0 1 0 0-170.666666z" p-id="2550"></path></svg>