<?xml version="1.0" standalone="no"?><!DOCTYPE svg PUBLIC "-//W3C//DTD SVG 1.1//EN" "http://www.w3.org/Graphics/SVG/1.1/DTD/svg11.dtd"><svg t="1590921291580" class="icon" viewBox="0 0 1024 1024" version="1.1" xmlns="http://www.w3.org/2000/svg" p-id="2598" xmlns:xlink="http://www.w3.org/1999/xlink" width="200" height="200"><defs><style type="text/css"></style></defs><path d="M861.563071 338.201951l2.396853-6.233263-20.274813-18.251848L727.5452 209.192726l-136.416531-122.775962-5.597474 2.478133c-13.107735-5.729328-27.389512-9.486265-39.937319-9.486265L218.191311 79.408632c-30.080779 0-54.56589 24.486917-54.56589 54.56589l0 763.935103c0 30.082585 24.486917 54.567696 54.56589 54.567696l600.233821 0c30.082585 0 54.567696-24.485111 54.567696-54.567696l0-518.384986C872.992828 366.178484 868.46283 351.390965 861.563071 338.201951zM600.15796 167.947704l174.46635 157.012852-174.46635 0L600.15796 167.947704zM818.347464 897.911432 218.191311 897.911432 218.191311 133.976329l327.400758 0 0 218.267172 27.282945 27.282945 245.548311 0L818.347464 897.911432zM572.876821 461.377087 300.041952 461.377087l0 54.56589 272.834869 0L572.876821 461.377087zM300.041952 652.361314 736.576297 652.361314l0-54.56589L300.041952 597.795424 300.041952 652.361314zM300.041952 788.777846 736.576297 788.777846 736.576297 734.210149 300.041952 734.210149 300.041952 788.777846z" p-id="2599"></path></svg>