<?xml version="1.0" standalone="no"?><!DOCTYPE svg PUBLIC "-//W3C//DTD SVG 1.1//EN" "http://www.w3.org/Graphics/SVG/1.1/DTD/svg11.dtd"><svg t="1591582475472" class="icon" viewBox="0 0 1024 1024" version="1.1" xmlns="http://www.w3.org/2000/svg" p-id="4591" xmlns:xlink="http://www.w3.org/1999/xlink" width="200" height="200"><defs><style type="text/css"></style></defs><path d="M511.658667 0C244.599467 0 34.133333 221.320533 34.133333 479.709867c0 258.321067 214.152533 484.693333 477.525334 484.693333 263.509333 0 478.208-226.372267 478.208-484.693333C989.866667 221.320533 778.786133 0 511.658667 0z m337.5104 330.888533c5.5296-0.341333 7.9872-5.461333 12.970666-6.894933 9.147733-2.730667 5.9392 3.003733 10.4448 7.509333 3.822933 0-4.778667 2.730667-5.393066 2.730667-3.822933 1.365333-3.549867 0.682667-6.690134 0.682667-1.160533 1.501867 1.911467 8.669867 2.730667 8.669866 2.730667 4.096 4.232533 1.365333 3.8912 7.509334-0.273067 5.597867 4.3008 0.477867 6.144 0.477866 0 3.413333 4.9152 6.144 5.256533 10.0352-2.116267 0.273067-7.099733-0.682667-7.9872 0 0.341333 3.8912 2.730667 3.8912 2.730667 7.3728 4.096 0-3.2768 10.6496 3.959467 10.6496-1.706667 6.7584-13.175467 4.5056-14.677334-1.979733-11.264-2.525867-5.3248-10.4448-5.666133-16.657067-0.477867-8.328533-7.714133-11.0592-7.714133-17.408-5.9392 0 0-11.605333 0-12.6976z m-3.8912 387.618134c0.546133-7.099733-0.682667-19.114667 2.525866-19.114667 0-5.461333 3.003733-12.765867 3.413334-19.456h3.2768c0-1.365333-0.341333-6.144 2.048-7.304533 0-3.618133 9.216-5.256533 3.959466-10.0352-2.184533-0.750933-4.027733-10.6496-4.027733-14.062934-2.8672 2.8672 1.501867 11.400533-5.3248 11.400534 0-8.192-9.079467 4.642133-1.365333 4.642133 0 7.3728-9.4208 4.027733-12.6976 2.048-1.6384 4.027733-2.730667 5.7344 2.048 6.690133-1.979733 5.7344-3.959467 2.048-6.690134 0-2.730667 7.9872-8.874667 54.613333 8.874667 50.722134a410.146133 410.146133 0 0 1-329.659733 166.229333A411.0336 411.0336 0 0 1 101.102933 479.709867c0-62.6688 14.199467-122.0608 39.389867-175.240534l0.068267 0.273067c11.946667 9.557333 12.0832 25.3952 12.0832 38.161067-1.570133 7.168 2.048 15.7696 2.048 22.664533 3.2768 1.706667 9.284267 12.0832 9.284266 15.428267 0.136533 0 7.645867 10.581333 8.055467 11.400533 8.942933 0 13.380267 3.822933 13.380267 12.014933a56.866133 56.866133 0 0 0 7.3728 14.062934c0 3.4816 5.3248 16.384 8.669866 18.0224 0 10.8544 26.282667 28.2624 11.264 2.730666-1.365333-2.321067-8.328533-15.428267-9.898666-15.428266 0-4.232533-8.874667-9.216-7.7824-12.970667 1.6384-5.597867 11.741867 7.3728 11.741866 10.24 1.501867 0 5.461333 8.669867 5.461334 9.4208 2.389333 0 11.946667 7.168 11.946666 11.400533 6.9632 0 10.922667 17.339733 11.195734 22.254934 0.136533 4.096 2.389333 15.1552 8.192 15.1552 2.594133 5.12 13.653333 3.2768 16.110933 8.055466 7.099733 0 14.9504 5.3248 22.7328 5.3248 6.690133 0 8.055467 8.055467 14.062933 8.055467 0.887467 1.8432 3.959467 1.160533 3.959467 2.6624 5.870933 0 22.050133 9.216 19.387733 16.042667 2.8672 1.365333 10.8544 9.489067 10.0352 13.380266 1.092267 7.9872 13.7216 7.509333 18.773334 10.0352 4.642133-14.1312 10.717867-0.750933 10.717866 6.075734-0.546133 2.184533 0 11.605333 0 16.042666 6.075733 0-1.706667 9.966933-3.413333 3.2768a6.3488 6.3488 0 0 0-3.959467 5.393067c-3.2768 0-10.8544 20.2752-3.413333 22.7328-0.8192 7.850667-9.898667 14.609067-1.297067 19.387733 0-0.477867 16.315733 23.415467 14.062934 23.415467 0 3.754667 2.389333 8.328533 3.345066 11.400533 0 6.894933 6.826667 22.7328 16.725334 22.7328-0.136533-0.2048 10.171733 10.6496 8.669866 10.6496 3.003733 18.090667-1.365333 29.354667-1.365333 48.878934-5.7344 0-0.273067 38.912-7.9872 42.8032-1.365333 6.280533-6.007467 11.400533-4.027733 15.36 0.682667 6.417067 0 12.765867 0 18.090666-1.570133 0-3.345067 8.6016-3.345067 10.6496-4.437333 0-4.7104 33.1776-4.232533 44.919467 10.6496 3.959467 21.572267 7.441067 32.5632 10.513067a11.605333 11.605333 0 0 1-2.2528-6.5536c-4.437333 0-0.068267-12.0832 4.7104-12.0832 1.6384-5.7344 4.573867-5.870933 7.3728-10.0352 3.2768 0-2.048-5.3248-2.048-2.048-0.682667 0-0.750933 2.184533-2.6624 2.730666-0.6144-1.6384 0.2048-3.345067-0.682667-3.345066 0-3.754667 2.048-7.441067 2.048-11.332267 1.2288 0 2.8672-4.846933 4.642133-6.075733 3.754667-4.3008 7.3728-4.778667 7.3728-10.717867 0.8192 0-1.160533-6.621867-2.730666-6.621867 3.959467-3.413333 8.738133 2.730667 8.738133-4.096 1.2288 0 2.048-4.096 2.048-5.3248 5.666133-3.754667 4.573867-4.642133 13.312-4.642133 1.092267-2.184533 7.509333-4.778667 10.0352-4.7104 0-0.955733 0.8192-10.0352 0-10.0352 0-4.846933 8.669867-5.461333 8.669867-7.304533 4.778667-3.413333 6.280533-7.3728 6.5536-12.970667 0.136533-4.437333 6.826667-9.8304 10.513066-9.8304 5.9392 0 1.979733-2.6624 5.7344-2.6624-1.092267-3.208533 1.365333-2.935467 3.140267-5.051733 2.525867-3.140267 1.706667-14.267733 2.184533-19.0464-1.2288 0 5.597867-6.417067 6.075734-7.304534 3.140267 0 5.461333-2.730667 8.669866-2.730666 1.6384-3.2768 12.6976-8.328533 16.725334-11.332267 1.774933-7.099733 6.690133-8.533333 6.690133-16.042667 1.911467 0 3.959467-14.7456 3.959467-17.408 0.4096 0 0.682667-13.380267 0.682666-14.677333 0.341333 0 10.0352-10.8544 10.0352-12.0832 8.942933-6.690133 7.645867-26.350933-1.024-33.9968a38.2976 38.2976 0 0 0-15.701333-9.489067c-1.160533 3.549867-4.3008 1.297067-7.441067 1.2288-5.461333-0.2048-6.007467 3.4816-11.264 3.4816 0.682667-3.208533 2.321067-12.6976-4.027733-13.380266 0 6.3488-6.417067 3.345067-4.642133-0.682667-3.072 0-5.802667-4.642133-10.0352-5.3248 0 6.826667-10.24 1.365333-7.3728 1.365333 0-0.887467-1.706667-10.103467 0.682666-10.103466-0.8192-3.8912-1.774933-10.717867-4.7104-12.6976-2.594133-5.461333 1.501867-3.549867-4.7104-8.669867-1.024-2.184533-1.570133-0.546133-2.6624-2.730667-2.048 0-6.075733-5.393067-7.304533-0.682666-3.8912-0.2048-7.304533-2.048-10.922667-3.208534-6.621867-2.048-0.8192-2.594133-5.12-4.778666 0-1.911467-6.075733-2.389333-6.075733-5.3248-1.2288-3.208533-3.618133-3.549867-4.027733-4.642134-0.546133 0.136533-1.024-0.068267-1.365334-0.682666-1.2288 0-1.024-2.594133-4.027733-2.594134-0.273067-0.955733-3.140267-3.2768-3.959467-2.730666-3.072 2.116267-11.4688 1.092267-15.086933 0.8192-9.079467-0.682667-7.509333-10.922667-12.288-11.605334a19.933867 19.933867 0 0 1-10.513067 4.3008c-0.8192-1.297067-1.024-0.955733-2.8672-2.048a18.2272 18.2272 0 0 0-3.618133 1.8432c-2.184533 1.365333-4.3008 5.597867-7.031467 4.096-1.365333-1.365333-2.2528-1.024-2.730666 1.160534-5.666133 0 2.730667 13.448533-10.717867 13.448533 0.546133-4.778667 0-9.352533-6.690133-9.352533 0 5.7344-9.557333 4.573867-14.062934 3.959466 1.092267-4.369067-1.092267-7.5776-4.642133-10.0352 0-3.413333-2.730667-7.7824-2.730667-13.380266-4.642133 0 2.4576-14.677333-5.3248-14.677334 0.477867 0.8192 0.682667 1.706667 0.682667 2.6624-5.393067 0-10.717867 0.955733-16.042667 0 1.365333-4.846933-2.8672-5.393067-1.570133-10.513066 1.024-4.164267 2.730667-7.918933 3.549867-12.288 2.048 0 1.706667-6.007467 5.393066-6.007467 3.6864-2.048-1.365333-8.055467-1.365333-2.6624l-7.3728 2.730667c0 0.4096-6.690133 6.7584-6.690133 1.979733-3.413333 1.365333-8.533333 8.055467-3.345067 9.352533-0.546133 2.730667-4.642133 4.983467-4.642133 5.393067-7.5776 0-4.846933-0.546133-5.3248-4.096-4.437333 0-9.557333-9.966933-14.1312-9.966933 0-4.3008-4.642133-8.3968-4.642134-14.062934-1.092267 0-1.092267-20.0704 0-20.0704 0-10.171733 7.168-18.705067 17.408-19.729066 6.417067-0.682667 5.666133 3.8912 11.537067 4.7104 3.345067 0.477867 5.256533-1.024 8.533333-2.321067-0.2048-2.798933-2.048-3.549867-2.730666-6.075733 4.027733 0 15.086933 0.682667 16.725333 4.027733 3.8912 1.570133 8.738133-2.730667 11.400533 1.024 2.048 2.730667 5.3248 11.605333 5.3248 14.336-0.8192 0 3.618133 6.690133 4.096 7.3728 6.280533-0.068267 4.7104-4.983467 3.6864-9.762133-0.8192-3.822933-1.774933-15.633067-4.437333-18.295467 0-11.332267 7.714133-10.171733 12.0832-18.773333 6.9632 0 8.533333-11.264 12.6976-14.062934 0-1.365333 2.730667-10.308267 3.2768-10.6496 0.955733-5.393067 3.2768-5.256533 5.461333-8.738133-0.887467 0 8.669867-7.099733 8.669867-6.007467 3.549867-2.389333 6.621867-9.898667 7.9872-13.994666 1.8432 0 5.9392-3.822933 6.690133-5.393067 4.778667 0 7.509333-2.730667 13.380267-2.730667-0.955733 1.979733 0 1.501867 0.682667 4.778667 0.2048 0-3.6864 0.8192-4.096-0.136533-0.682667 2.594133-6.007467 3.2768 4.778666 2.048 0.682667-1.365333 4.232533-2.730667 6.007467-3.2768 0-3.413333 4.983467-1.024 6.007467-4.027734-3.8912-0.2048-6.9632-1.774933-9.6256-6.075733-2.730667-4.437333-8.6016-10.6496 0.955733-10.6496 0-1.365333-1.365333-0.682667-1.365333-2.048-4.9152 1.365333-5.9392 4.778667-11.400534 4.778667-6.621867 2.184533-9.898667 8.738133-17.339733 8.669866 0.682667-6.826667 12.4928-20.343467 18.6368-22.3232 11.6736-3.754667 30.993067 6.621867 34.2016-7.7824 2.321067 0.273067 12.6976 3.959467 12.6976-0.682666 2.4576 0-2.048-4.7104 2.730667-4.7104-0.682667-3.2768-6.144-7.304533-8.055467-7.304534 0-7.3728-4.027733 0.682667-6.075733 0.682667 0-4.846933-1.706667-4.437333-3.345067-6.075733 0-3.4816-7.645867-8.942933-10.0352-12.6976-3.2768 0-7.9872-16.452267-10.6496-14.677334 0 4.027733-3.072 9.352533-7.3728 9.352534 0 2.730667-6.826667 1.365333-8.055467 1.365333 0-3.959467 1.365333-0.546133 1.365334-2.730667-2.2528 0-2.048-2.8672-2.048-3.345066-1.2288 0-11.332267-9.898667-11.332267-12.014934-8.874667 2.935467-2.116267-0.750933-10.717867-4.7104-3.003733 7.918933-11.605333 1.365333-16.725333 1.365334 0 1.092267-4.369067-0.682667-6.007467 0 0 4.7104 3.8912 14.7456-1.365333 16.042666 1.024 3.549867 3.4816 1.160533 5.461333 3.549867 3.072 3.6864 1.8432 10.24-0.068266 14.5408 7.714133 2.935467-6.007467 9.147733-6.007467 5.3248-4.232533 1.160533-4.9152 6.5536-0.682667 9.352533 0 2.730667-1.365333 7.3728 2.6624 7.3728-1.092267 4.437333-7.7824 4.9152-12.014933 3.345067-0.477867-1.365333 0-1.774933 1.297067-1.365333-0.682667-2.525867-3.822933-10.0352-2.6624-10.0352-0.8192-2.525867-9.352533-16.042667-9.352534-8.669867-4.778667 0-10.0352 1.024-10.0352-4.778667-1.774933-0.477867-4.642133-1.8432-5.3248-3.2768-8.8064-1.2288-12.356267-2.2528-22.1184-4.027733 0.4096-4.027733-8.3968-11.400533-12.6976-13.994667 0-9.966933-2.798933-19.182933 8.055467-20.753066 0 1.501867 9.557333-3.003733 10.6496-3.345067 2.730667-5.461333 8.192 3.003733 10.513067-5.188267a9.557333 9.557333 0 0 1 12.288-6.144c-0.8192 6.144-2.6624 12.6976-8.055467 12.6976 3.8912 3.2768 14.336-1.365333 18.705067-1.365333 0 0.477867 6.826667 1.365333 8.738133 1.365333-3.003733-4.096-22.186667-7.509333-13.448533-14.062933 0-1.911467 7.7824-1.911467 8.8064-6.007467 0.8192-3.2768 1.706667-12.288 0-12.970666-2.594133-0.887467-5.256533 0.4096-9.4208-0.4096 0-1.365333-0.068267-2.730667-1.365334-2.730667 0 4.164267-3.6864 0.273067-6.690133 1.365333 0 1.024 2.525867 4.027733 0.682667 4.027734 0 6.144-0.682667 12.219733-8.669867 13.380266-0.136533-4.3008-2.321067-12.561067-6.690133-14.062933 0 12.9024-12.288-5.393067-14.7456-7.3728-0.955733-3.822933-3.6864-5.461333-6.690134-6.690133-2.048 5.256533-5.666133 0.546133-8.738133 6.007466-2.525867 4.437333 0.273067 3.822933-2.594133 8.738134-3.822933 0-13.038933-2.594133-13.380267 1.365333 3.959467 0 5.597867 0.955733 4.642133 4.642133 6.5536 0-2.6624 4.096-2.6624 4.7104-3.754667 0-6.280533 1.501867-10.717866 0.750934a98.986667 98.986667 0 0 1-16.1792-3.549867c-4.437333-1.501867-3.618133-3.8912-5.188267-3.8912-6.007467-9.898667 8.669867-4.096 8.669867-3.413333 4.846933 0 10.717867 6.3488 9.4208-3.959467a21.845333 21.845333 0 0 0 5.3248 0.682667c-1.160533-4.642133-6.417067-2.321067-10.0352-2.048 0-2.798933-3.8912-9.352533-4.7104-9.352534-1.6384-4.9152-0.682667-5.188267-0.682667-9.352533-1.092267 0.273067-7.850667 4.778667-8.465067 3.413333a409.736533 409.736533 0 0 1 593.7152 35.771734c-2.389333 6.621867-8.328533 1.2288-11.127466 6.280533-0.750933 0-2.730667 6.007467 1.365333 6.007467-1.365333 5.393067-6.690133 4.642133-6.690133 0-3.754667 0-5.9392 4.096-11.400534 4.096 0.682667-3.413333-6.144-13.448533-10.0352-13.448534 1.2288-2.389333 0-0.2048 0-2.730666 11.127467 0 22.9376-1.911467 31.402667-1.911467 0-6.144-18.158933-13.858133-22.528-11.4688-2.594133 1.365333-10.581333-2.594133-14.199467-2.594133 0-2.6624-22.528-2.594133-26.077866-2.730667 0-4.437333-35.908267 5.461333-39.185067 5.7344-7.645867 0.546133-10.922667 5.12-17.066667 10.376533 0-0.068267-18.363733 15.36-9.352533 15.36-1.160533 10.581333-28.672 9.4208-28.672 16.110934-1.365333 0.341333-9.489067-1.774933-5.461333 5.256533-0.682667 0 6.3488 7.850667 6.7584 8.738133 5.802667 0 10.717867 2.730667 18.0224 2.730667 0.8192-1.6384 4.096-2.4576 6.075733-2.730667 0.341333 4.096 3.549867 12.6976 6.007467 12.6976 0 3.822933 1.911467 9.898667-5.393067 6.007467-1.024-0.682667-1.2288-6.212267-1.501867-8.192-0.8192-5.188267-6.280533 2.321067-11.195733 1.570133 0 3.754667-0.682667 13.994667 3.345067 15.36-1.8432 5.597867-9.4208 1.706667-12.6976 6.690134-2.730667 0-7.304533 8.192-7.304534 2.730666-4.369067 2.798933 0.4096 10.513067-8.055466 5.9392-0.273067 1.8432-0.2048 4.369067-0.682667 7.3728 5.3248 0-1.024 4.027733-2.730667 4.027734 0 5.802667-5.9392-0.341333-7.304533-1.365334a1.024 1.024 0 0 1-0.682667 0.682667c4.983467 8.465067-7.714133 4.5056-11.195733 2.525867-4.096-2.321067 1.706667 3.8912 4.5056 4.778666 0 4.232533 14.062933 11.741867 6.007467 20.138667 0 2.389333 0.273067 2.6624 2.730666 2.6624 0 5.870933-7.236267 4.778667-11.400533 4.027733 1.8432-3.413333 0.477867-5.256533-4.027733-5.393066 0 5.188267-10.717867 2.321067-15.36 4.027733-0.8192-1.706667-1.160533-2.2528-2.730667-2.730667a126.498133 126.498133 0 0 0-2.6624 24.1664c0 8.192 6.5536 13.5168 14.062933 16.042667 0-2.116267 17.408-0.750933 18.158934-3.618133 1.4336-5.666133 6.280533-5.802667 7.236266-11.810134a290.816 290.816 0 0 1 9.4208-24.098133c0-0.682667 15.906133 4.369067 18.705067-1.297067 1.365333 0 5.051733-1.365333 6.007467-2.730666 5.188267 0.682667 6.3488 10.103467 9.352533 10.103466 3.6864 5.461333 12.424533 4.096 15.428267 10.0352 4.3008 0 4.642133 11.195733 4.642133 15.36 4.983467-3.754667 5.666133-7.031467 4.5056-10.922666-2.048-6.621867 5.256533 1.297067 7.509333-1.774934-3.140267 0-2.389333-6.144-8.669866-4.642133a22.3232 22.3232 0 0 1-0.682667-5.461333c-8.465067 1.501867-7.7824-11.332267-14.677333-9.966934-0.8192-3.140267-4.778667-4.096-2.594134-8.055466 3.413333-6.144 14.5408 12.0832 19.319467 12.0832 1.092267 2.2528 8.669867 2.935467 8.669867 4.642133 3.959467 1.365333 2.048 7.7824 2.048 11.400533 3.6864 0 2.4576 2.048 3.959466 4.7104 5.393067 2.6624 2.389333 12.6976 11.400534 14.677334 0-3.413333 8.669867-10.0352 3.345066-10.0352 0.477867-2.730667-5.870933-14.882133 2.8672-13.175467 3.140267 0.682667 8.192 0.8192 9.147734 4.573867 1.8432 7.3728 0.341333 11.400533 6.007466 16.5888 3.618133 7.304533 16.384-0.8192 18.090667 2.730666 1.2288 0 9.352533 3.413333 9.352533 0.682667 3.6864-1.2288 4.778667-2.048 9.352534-2.048 0 4.7104-1.6384 10.6496-2.4576 14.5408-0.682667 3.140267-3.8912 6.144-2.8672 10.24-3.072 0-2.594133 3.959467 0.682666 3.959467 0 6.212267-7.304533 5.256533-12.0832 4.778666 1.365333 4.573867 9.4208 14.472533 12.6976 16.657067 1.365333 4.096 4.778667 11.195733 8.055467 13.380267 0.546133 3.072 3.618133 11.4688 6.075733 12.6976 0 4.642133 15.837867 34.133333 12.014934 34.133333 1.4336 2.4576 3.140267 3.549867 2.6624 6.007467 6.007467 0 3.618133 14.677333 16.042666 14.677333 0.887467-1.774933 10.922667-5.3248 13.380267-5.3248 2.2528-4.5056 14.5408-7.9872 18.0224-7.9872-1.160533-3.6864 18.773333-12.288 18.773333-14.062933 2.525867-0.955733 4.642133-6.144 4.642134-9.0112 0-4.573867 3.413333-4.9152 3.413333-8.3968 5.3248-3.549867 6.621867-12.629333-0.682667-14.677334 1.2288 7.645867-5.393067 3.618133-4.437333 1.570134 1.4336-3.140267-0.682667-4.369067-2.935467-6.9632-2.525867-1.2288 0.546133-4.096-2.048-6.007467-3.345067 8.328533-9.8304 12.0832-16.725333 12.0832-1.8432-5.597867 4.164267 1.570133-0.682667-6.075733a9.079467 9.079467 0 0 1-1.297066-7.3728c-0.8192 0-0.682667-0.2048-1.365334-0.682667-1.160533 7.168-0.4096 8.055467-5.3248 8.055467-0.887467-2.389333 3.8912-3.618133 0-7.441067a13.175467 13.175467 0 0 1-2.730666-7.236267c-2.048-1.4336-7.304533-9.898667-6.007467-12.219733 4.778667-8.6016 15.837867 10.922667 14.7456 14.199467 0.682667-0.2048 0.887467 0 0.682667 0.682666 13.380267-4.096 24.712533 8.669867 38.0928 8.669867a45.397333 45.397333 0 0 0 15.36 2.184533 408.029867 408.029867 0 0 1-75.3664 273.066667zM762.197333 352.256c-1.024-11.0592 5.666133-16.930133 10.0352-26.760533 7.509333-0.750933 10.24 1.092267 10.0352 7.9872 5.461333 0 1.092267 6.280533 8.192 3.549866 1.774933-2.4576 4.164267-3.208533 7.236267-2.184533 4.642133 0 5.870933 2.730667 9.352533 2.730667 3.2768 6.621867 13.789867 4.642133 13.312 16.657066 7.645867 0-6.690133 7.714133-6.690133 6.007467-8.465067 2.4576-10.4448-6.007467-13.994667-6.007467 0 7.850667-4.5056-1.365333-5.393066-1.365333 0 2.730667-25.8048 4.3008-30.037334 4.096 0.6144-3.2768 1.160533-3.959467-2.048-4.7104zM582.314667 221.184c-3.208533 1.501867-2.321067 4.3008-6.826667 2.6624 0-8.6016-2.116267-3.208533-10.24-2.048-1.501867 0.136533-11.741867 3.618133-11.741867 2.048-0.136533 0 0.341333-3.4816 0-4.7104-2.116267-0.546133-0.682667 0-0.682666-1.365333-1.024 0-8.669867 3.413333-8.669867 3.413333 6.5536 0-0.682667 5.393067-0.682667 7.304533 5.051733 0.6144 8.465067 2.730667 12.6976 2.730667 0 1.365333 11.605333-0.682667 13.1072-0.682667a19.797333 19.797333 0 0 0 12.014934-3.413333c4.232533-2.730667 1.024-2.4576 1.024-5.9392z m40.7552 57.480533c6.621867 0 8.260267 2.184533 8.669866 9.352534 7.918933 2.594133-5.3248 2.048-6.007466 2.048-0.068267 3.345067-4.846933 10.103467 1.2288 8.192 4.5056-1.365333 5.461333-1.092267 5.461333 3.822933 5.9392 0 14.199467 0.273067 17.408-6.007467 3.208533 0 3.413333-3.072 0-4.096 0 3.618133 0.136533 3.413333-3.345067 3.413334 1.297067-7.236267 0.341333-13.380267-6.007466-13.380267 1.024-3.072-1.6384-5.461333-4.232534-7.509333-4.9152-3.822933 0.136533-4.778667 0.887467-9.216-3.618133 0.887467-3.6864 3.959467-8.669867 4.027733 0-1.092267 1.024-4.3008 0.136534-4.642133 1.2288 0 5.9392-4.096 0.477866-4.096-2.321067 8.738133-9.693867 0.2048-8.533333 8.192 0.8192 5.3248 2.525867 4.983467 2.525867 9.898666z m-19.387734 18.705067c9.966933-0.136533 12.561067-5.9392 15.291734-13.858133 2.730667-7.850667-2.594133-3.822933-5.256534-3.4816-2.321067 1.160533-3.959467-3.959467-4.9152-1.6384-0.887467 2.048 0.682667 4.3008 2.8672 4.3008-0.546133 1.6384-13.9264 3.618133-7.304533 5.3248-0.8192 3.8912-4.3008 5.802667-0.682667 9.352533z m19.387734 9.284267c1.160533 8.738133 7.304533 3.754667 7.304533-2.594134h-6.144c0.477867 2.594133 0 3.413333-1.160533 2.594134z m-193.536 26.760533c5.051733-0.341333 7.304533-1.8432 7.304533-7.236267-4.642133 3.072-6.144 2.184533-7.304533 7.236267z m251.4944 12.834133c0.6144 2.184533-1.092267 2.6624-5.12 1.365334 1.6384 3.140267 0.8192 3.8912 3.413333 5.9392 1.092267-3.072 6.9632-6.007467 1.706667-7.304534z m-1.160534 9.352534c0 4.096-0.955733 6.075733-2.2528 1.365333-4.5056 0-2.321067 5.597867-2.321066 8.6016 8.533333 2.321067 7.645867-9.966933 4.573866-9.966933z m26.146134 18.0224c-3.822933 2.321067-2.048 4.573867-7.168 2.389333-2.184533-0.887467-4.5056-4.9152-5.5296 0.273067 6.485333 0.8192 12.6976 11.605333 12.6976-2.6624z m131.754666 151.7568c-7.099733-0.477867-1.6384-1.570133-2.048-3.8912-5.393067 0-15.36-19.319467-15.36-24.098134-1.979733-1.024-3.6864-8.055467-3.345066-8.055466-1.570133-4.7104-7.850667-8.6016-5.3248-13.380267-5.870933-3.4816-12.151467-15.701333-13.994667-21.367467-3.549867-2.6624-6.075733-10.0352-6.075733-14.062933-4.096 0-9.489067-12.0832-8.669867-16.725333-3.822933 0-4.778667-6.690133-8.738133-6.690134 1.911467-5.666133-24.849067-6.144-29.354667-6.690133 0.682667-4.573867-2.730667-7.3728-6.7584-7.3728 0 7.099733-15.086933 7.850667-20.2752 7.5776-3.6864-0.136533-11.810133-1.2288-11.810133-5.5296-2.525867-0.682667-6.144 0-10.0352 0 0.887467-4.5056-8.328533-24.917333-13.380267-26.146133v2.048c-3.754667 0.6144-27.4432-5.256533-27.4432-0.682667-2.8672 0-14.813867 4.3008-16.725333 8.055467-1.092267 0-12.014933 5.3248-12.014934 1.365333-2.730667 0-6.075733 1.365333-7.3728 3.959467-3.003733 0-6.144 5.3248-7.9872 7.3728-5.188267-0.682667-1.501867-3.8912-6.690133 3.413333a39.936 39.936 0 0 1-4.642133 12.629333c1.6384 1.6384 1.570133 2.525867 0 4.7104-3.754667 2.935467-5.870933 8.874667-9.4208 10.6496-3.754667 6.280533-4.573867-0.4096-7.3728 6.621867-1.570133 3.8912-3.618133 6.826667-5.256534 9.966933a40.3456 40.3456 0 0 0-5.461333 23.552c0 3.413333-3.4816 6.417067-2.730667 9.216 1.160533 3.822933 3.413333 11.6736 2.730667 14.199467-2.525867 0-3.959467 9.0112 0.682667 11.400533 0 5.9392 8.669867 23.825067 14.062933 27.374934 0 4.9152 9.762133 15.428267 14.677333 15.428266 1.911467 3.754667 22.1184 9.4208 22.1184 4.7104 8.192 0 37.137067-5.3248 41.506134 3.345067 7.236267 0 9.966933-1.297067 16.657066 1.979733 0.955733 4.983467-0.477867 20.0704-3.959466 24.098134 0 6.690133 1.979733 13.789867 7.304533 17.339733 0.4096 1.6384 4.232533 8.055467 5.393067 8.055467 2.048 8.3968 4.369067 15.701333 2.798933 27.716266-1.365333 10.922667-4.778667 17.339733-4.778667 27.101867-2.048 0 1.979733 18.773333 3.959467 18.773333 0 8.465067 6.690133 16.110933 6.690133 25.3952 0.4096 0 2.730667 8.738133 2.730667 11.332267-2.048 0 10.6496 25.6 10.6496 27.4432 2.321067 0 2.594133 8.738133 4.642133 8.738133 0.4096 5.7344 2.730667 11.127467 2.730667 15.36 2.6624 4.096 13.653333 0.682667 18.0224 0.682667 0-1.570133 20.138667-5.393067 22.7328-5.393067l10.103467-13.994666c0-6.212267 12.4928-18.158933 17.339733-21.435734 0-1.024 6.144-16.042667 5.393067-16.042666 0-10.581333 2.6624-17.476267 2.6624-26.760534 1.911467 0 3.8912-8.738133 7.9872-8.738133 1.160533-2.2528 4.437333-3.140267 6.690133-4.642133 0-5.802667 4.7104-10.171733 4.7104-17.339734 3.003733 0-2.048-22.459733-2.048-24.7808-5.870933 0-1.365333-26.692267-1.365333-30.1056-3.754667 0 12.4928-18.090667 12.219733-16.9984 1.092267-4.7104 9.8304-11.127467 12.6976-14.813866 2.594133-3.413333 11.264-9.8304 11.264-13.653334 3.754667-1.911467 4.232533-5.461333 7.3728-7.3728 0-1.706667-2.184533-6.690133 2.6624-6.690133-1.2288-8.6016 6.007467-13.448533 6.007467-22.050133-5.666133 1.8432-13.585067 2.730667-19.387734 2.730666 0 1.092267-6.417067 1.2288-7.3728 1.160534z m-505.856-67.720534l-2.048-1.092266c-2.321067 10.24 6.894933 8.3968 6.894934 2.184533-2.048 1.6384-3.8912 4.232533-4.778667-1.092267z m20.0704-1.092266c-2.048 3.549867-5.393067 2.184533-8.738133 2.048 2.048 3.003733 8.669867 6.007467 12.0832 6.007466 2.184533 4.437333 8.874667 7.304533 14.199467 6.826667 7.031467-0.682667-0.273067-5.870933-1.501867-8.192-6.826667 0-7.5776-5.802667-16.042667-6.690133z m40.7552 17.408c-1.365333 4.027733 0 0.273067 0 3.345066-4.9152 0.068267-9.079467-2.730667-12.6976-2.730666 1.160533 2.048 2.730667 3.549867 2.730667 5.393066-3.4816 1.365333-6.075733 0-9.4208 0 1.2288 2.4576 10.24 2.798933 11.400533 0.682667 7.714133 0 8.055467-0.136533 15.36 0.682667-0.2048-2.048-5.256533-6.826667-7.3728-7.3728z m-36.522666 5.3248c-2.730667 9.0112 3.072 7.099733 6.5536 7.099733 0.2048-3.8912-1.979733-6.280533-6.5536-7.099733z m5.12 7.509333c2.389333-0.477867 4.9152-0.8192 7.304533-1.365333-1.365333-11.0592-6.621867-4.5056-7.304533 1.365333z m49.152-7.509333c-2.594133 11.605333 2.594133 5.9392 6.5536 5.9392 0-4.096-3.549867-5.9392-6.5536-5.9392z m-3.6864 0.682666v7.236267c3.003733-0.887467 4.3008-2.389333 7.304533-2.389333 0-3.072-4.232533-4.846933-7.304533-4.846934z m-19.387734 38.7072c6.144 0 5.870933-0.341333 7.304534-5.461333a111.752533 111.752533 0 0 0-5.461334-1.774933c-0.682667 2.389333-1.2288 4.778667-1.8432 7.236266z m464.418134 138.990934c9.489067 2.048 7.645867 0.273067 5.666133-6.485334-4.437333 2.389333-5.666133 1.8432-5.666133 6.485334z" p-id="4592"></path></svg>