<?xml version="1.0" standalone="no"?><!DOCTYPE svg PUBLIC "-//W3C//DTD SVG 1.1//EN" "http://www.w3.org/Graphics/SVG/1.1/DTD/svg11.dtd"><svg t="1591582546794" class="icon" viewBox="0 0 1024 1024" version="1.1" xmlns="http://www.w3.org/2000/svg" p-id="6603" xmlns:xlink="http://www.w3.org/1999/xlink" width="200" height="200"><defs><style type="text/css"></style></defs><path d="M441.17749 300.530704h-80.216973l148.294464 177.230494 152.525836-177.230494h-80.217997V108.562555H441.17749zM441.17749 64.264653h140.38533V88.877213H441.17749z" p-id="6604"></path><path d="M950.501544 542.341029L806.260395 159.761634H650.815067v29.455869h118.637004l97.286744 349.383342H657.681452L509.092275 676.014494 351.371114 538.600845H144.594701l97.258091-349.383342h120.945583V159.761634H209.644229L68.07084 547.377742v0.409322h0.648776a13.016455 13.016455 0 0 0-0.648776 2.656503v396.473847c0.935302 6.693446 6.641257 11.860119 13.55983 11.860119h859.498412c7.576559 0 13.718443-6.181793 13.718443-13.788028v-392.601656c0-3.968381-1.678222-7.532557-4.341888-10.04682H950.501544z" p-id="6605"></path><path d="M509.258051 477.764268l-0.00307-0.00307-0.002046 0.00307z" p-id="6606"></path></svg>