<?xml version="1.0" standalone="no"?><!DOCTYPE svg PUBLIC "-//W3C//DTD SVG 1.1//EN" "http://www.w3.org/Graphics/SVG/1.1/DTD/svg11.dtd"><svg t="1591583012751" class="icon" viewBox="0 0 1024 1024" version="1.1" xmlns="http://www.w3.org/2000/svg" p-id="3389" xmlns:xlink="http://www.w3.org/1999/xlink" width="200" height="200"><defs><style type="text/css"></style></defs><path d="M512 512m-512 0a512 512 0 1 0 1024 0 512 512 0 1 0-1024 0Z" fill="#ED4C5C" p-id="3390"></path><path d="M341.12 449.92l137.6 96-51.84-156.16L563.2 289.92H394.24l-53.12-153.6-51.2 153.6H119.68L256 389.76l-51.84 156.16 136.96-96zM567.68 567.68l-38.4 9.6 38.4 14.72-0.64 39.68 24.32-30.08 38.4 14.08-23.04-32.64 24.96-30.08-39.68 8.96-23.04-32.64-1.28 38.4zM626.56 451.84l-29.44 26.24 39.04-3.2 16.64 37.12 8.32-39.04 38.4-3.2-33.28-21.12 8.32-39.04-30.08 25.6-33.92-20.48 16 37.12zM636.16 319.36l11.52 39.04 12.8-38.4 39.04 0.64-30.72-24.32 11.52-37.76-31.36 22.4L617.6 256l11.52 39.68-32 22.4 39.04 1.28zM567.68 183.04l1.28 39.04 23.04-33.28 39.68 8.96-24.96-30.08 23.04-32.64-37.76 14.72-24.96-30.08v39.04l-37.76 14.72 38.4 9.6z" fill="#FFE62E" p-id="3391"></path></svg>